<svg width="768" height="768" viewBox="0 0 768 768" fill="none" xmlns="http://www.w3.org/2000/svg">
<path d="M573.935 299.556C579.297 302.21 582.99 302.213 588.185 305.181C593.579 308.263 623.389 308.862 645.56 313.431C663.241 317.075 690.724 321.825 707.435 327.306C721.004 331.756 725.81 337.431 725.81 337.431C725.81 337.431 686.133 328.506 661.31 325.431C636.487 322.355 624.185 320.931 600.56 321.681C591.753 321.96 585.587 323.713 576.935 327.681C565.563 332.896 560.848 338.905 551.81 347.556C543.112 355.882 539.46 361.719 531.56 370.806C522.91 380.756 514.658 388.945 507.56 400.056C500.715 410.77 500.773 415.966 495.935 425.931C487.46 443.384 484.268 454.705 470.81 468.681C451.31 488.931 437.212 501.735 411.56 511.431C395.705 517.424 388.668 520.733 373.31 519.306C366.271 518.652 362.484 517.513 355.31 517.806C342.545 518.327 335.81 524.556 326.435 530.931C315.634 538.275 308.617 540.855 297.56 547.806C264.155 568.806 228.185 606.306 217.685 609.681C214.757 610.622 212.06 609.681 209.81 609.681C207.957 609.681 214.685 601.806 214.685 601.806C214.685 601.806 210.323 604.441 209.81 604.056C209.297 603.67 209.81 599.181 209.81 599.181C209.81 599.181 196.586 609.681 196.31 607.431C195.879 603.918 200.06 599.181 200.06 599.181C200.06 599.181 214.891 580.029 225.185 568.431C234.742 557.663 241.175 552.616 250.685 541.806C264.403 526.212 270.233 515.941 283.31 499.806C291.952 489.143 296.335 482.736 305.81 472.806C314.753 463.433 320.845 459.283 330.185 450.306C342.205 438.752 360.185 419.931 360.185 419.931C360.185 419.931 352.685 420.726 351.185 419.931C349.685 419.136 347.06 416.181 347.06 412.806C347.06 411.306 343.18 412.056 341.06 410.556C337.951 408.357 339.144 403.175 335.435 402.681C329.81 401.931 322.729 401.558 317.435 396.306C315.501 394.387 315.839 391.693 313.31 390.681C309.56 389.181 299.292 389.465 294.56 382.806C292.252 379.558 292.928 377.294 290.06 375.681C284.06 372.306 275.545 373.681 270.185 367.056C267.837 364.153 268.417 361.239 265.31 359.931C258.185 356.931 245.81 353.181 238.31 350.181C234.99 348.853 235.575 345.44 232.685 343.806C224.06 338.931 210.56 337.806 204.935 330.681C203.574 328.957 207.132 325.056 204.935 325.056C191.81 325.056 172.685 311.556 167.06 304.806C165.129 302.489 170.385 303.322 169.31 302.931C156.935 298.431 131.435 278.556 128.435 273.681C126.683 270.834 134.492 272.108 132.935 270.681C128.435 266.556 91.6849 246.681 85.6849 237.306C82.7887 232.78 96.4659 230.45 92.4349 230.181C81.1849 229.431 65.8099 204.681 57.1849 197.181C54.0906 194.49 65.111 192.752 63.1849 190.056C61.3099 187.431 50.0598 176.556 43.3099 170.556C40.683 168.221 41.9851 163.01 45.1848 161.556C49.3097 159.681 51.9171 158.573 58.3099 157.806C66.3545 156.84 71.807 158.353 80.0599 159.681C95.849 162.221 103.564 167.106 117.935 173.556C143.782 185.156 179.81 211.431 179.81 211.431C179.81 211.431 223.717 238.964 252.185 256.056C277.508 271.26 291.482 280.202 317.435 294.306C338.094 305.533 351.052 309.331 371.06 321.681C385.996 330.9 390.326 346.013 407.81 347.556C410.873 347.826 412.628 347.891 415.685 347.556C424.867 346.55 431.024 342.637 439.31 338.556C446.831 334.852 452.06 331.248 455.81 327.681C460.733 322.998 461.816 319.209 465.56 313.431C470.189 306.285 471.47 301.318 476.435 294.306C480.758 288.2 484.274 285.413 490.685 281.556C498.778 276.686 503.963 276.79 512.81 276.681C520.225 276.589 525.474 277.574 532.685 279.306C543.135 281.816 548.248 284.207 557.435 289.056C564.189 292.621 567.09 296.167 573.935 299.556Z" fill="url(#paint0_linear_508_37)"/>
<defs>
<linearGradient id="paint0_linear_508_37" x1="96.2798" y1="634.875" x2="577.78" y2="308.625" gradientUnits="userSpaceOnUse">
<stop stop-color="#090615"/>
<stop offset="0.25" stop-color="#31226D"/>
<stop offset="0.51" stop-color="#6C5AA6"/>
<stop offset="0.75" stop-color="#AE99CB"/>
<stop offset="0.945" stop-color="#E0DEEC"/>
</linearGradient>
</defs>
</svg>
