<svg width="64" height="64" viewBox="0 0 64 64" fill="none" xmlns="http://www.w3.org/2000/svg">
<path fill-rule="evenodd" clip-rule="evenodd" d="M12.6918 8.56044C21.1601 3.48814 32.9803 2.65992 43.8724 3.10439C50.1339 3.35993 54.6592 5.81139 57.7679 9.53115C60.869 13.2423 62.5431 18.195 63.1556 23.4354C63.7681 28.6779 63.3208 34.2297 62.1605 39.163C61.0013 44.0922 59.1241 48.4303 56.8558 51.2294C54.9532 53.5771 52.9233 55.3911 50.8197 56.7851C50.9193 56.719 51.0192 56.6528 51.1185 56.5849C51.8657 45.1874 53.9897 14.404 39.5824 13.9393C30.7656 13.6551 17.7858 16.376 16.3841 29.0702C15.3233 38.6799 17.8335 49.5981 18.6683 58.9931C19.1357 59.1302 19.6028 59.2574 20.0687 59.3739C19.3351 44.1953 9.06743 14.5787 34.9086 19.077C46.7261 21.607 44.611 49.8606 44.2923 59.827C44.4061 59.7931 44.5196 59.7572 44.6332 59.7216C38.4925 61.6465 32.1504 61.1104 26.7211 60.5165C22.0927 60.0102 16.4826 58.9571 11.7005 55.9159C6.90448 52.8661 2.96396 47.8319 1.65953 39.4198C0.388549 31.2224 1.01275 24.781 3.02867 19.747C5.04616 14.7092 8.44889 11.102 12.6918 8.56044ZM47.4291 58.6581C47.8103 58.4859 48.1907 58.3036 48.5687 58.1083C48.1906 58.3035 47.8104 58.4859 47.4291 58.6581ZM40.9935 40.9892C41.8727 38.2807 39.3432 36.044 37.3041 37.3593C33.7611 39.6451 39.7582 44.7918 40.9935 40.9892Z" fill="white"/>
</svg>
