<svg width="64" height="64" viewBox="0 0 64 64" fill="none" xmlns="http://www.w3.org/2000/svg">
<path d="M52.0483 0.93099C53.1501 0.921438 53.8535 1.06037 54.7446 1.75893C55.4873 2.51347 56.0296 3.42362 56.0224 4.50009C56.0668 18.0153 55.9707 31.5308 56.0122 45.0458C56.0104 47.5675 54.4686 47.3201 54.4661 47.3197C54.4917 50.3233 54.4674 53.3311 54.5447 56.3337C54.5377 57.548 54.2466 58.5049 52.4863 58.5064L25.7792 58.5727C25.5946 58.5638 25.5946 58.5638 25.5037 58.6744C25.4938 58.9353 25.556 61.6779 25.5561 61.6808C25.5465 62.144 25.5531 62.9893 24.5112 63C22.8066 63.0173 21.1565 60.7507 20.2706 60.7471C19.5918 60.7443 17.8008 63.0001 15.9265 62.9913C15.4985 62.9893 15.1922 62.6836 15.0376 62.3692C14.9527 62.0605 14.9636 61.7672 14.9759 61.4491C14.9864 60.4343 15.009 59.4184 15.0376 58.404L14.8658 58.4065C13.433 58.4097 7.98682 58.5339 7.98736 52.2753C7.9386 37.3459 7.96021 22.4163 7.93185 7.48695C7.91841 0.890681 13.5317 0.96174 14.244 0.963904L14.2441 0.963816C26.8455 0.919962 39.4471 1.04933 52.0483 0.93099ZM17.2031 59.9361C18.0694 59.417 18.9226 58.7165 19.8728 58.3675C20.4465 58.2263 20.8562 58.4527 21.3546 58.7478C21.6127 58.9016 23.0463 59.846 23.3384 60.0262V52.8169H17.2031V59.9361ZM15.4946 47.828C14.4598 47.8221 13.5842 47.8236 12.6684 48.3886C11.3934 49.2216 10.5772 50.4986 10.5146 52.0667C10.5581 55.439 12.7708 56.2239 14.2018 56.2472C14.4503 56.2452 14.6988 56.2438 14.9473 56.2413C14.9699 54.7203 14.992 53.1994 15.0191 51.6785C15.0259 51.2477 15.0446 51.1028 15.3475 50.7816C15.661 50.5291 15.9258 50.5093 16.3203 50.5029C18.8985 50.5305 21.4781 50.5048 24.0565 50.5057C24.4337 50.5016 24.7923 50.479 25.1362 50.6507C25.3693 50.8243 25.4919 50.9727 25.5717 51.2522L25.5841 55.4208C25.5834 55.6761 25.5701 55.8331 25.6842 56.061C25.8799 56.1848 26.0249 56.2391 26.256 56.2636C34.8173 56.2573 43.3785 56.2521 51.9398 56.2413V56.061C50.6253 53.3866 50.8985 50.5477 51.9398 47.8604C47.2275 47.8544 16.0841 47.8265 15.4946 47.828ZM13.3397 3.28933C12.4325 3.36836 10.0574 3.73972 10.1655 7.98162C10.1696 8.15242 10.2369 41.5329 10.2557 47.3197V47.4099C11.1579 46.5988 11.6431 46.0768 13.2331 45.7878C13.2331 30.2549 13.3397 17.9797 13.3397 3.28933ZM50.3365 3.15107C48.4414 3.15161 17.5151 3.18598 15.5332 3.25861L15.5516 45.7417C21.1475 45.811 50.6824 45.7303 51.4888 45.6977C53.3652 45.6221 53.7518 45.0956 53.7449 43.0277C53.7162 34.341 53.665 9.58593 53.6781 6.36745C53.6894 3.60523 53.4421 3.15009 50.3365 3.15107ZM29.9248 4.69475C30.8644 4.69476 31.6539 5.51957 31.5369 6.46232C32.4026 7.41817 33.0369 8.63188 33.5401 9.78791C33.6893 10.1309 33.8146 10.4575 33.99 10.7738C34.5922 10.398 37.7986 10.5099 38.1152 10.8594L38.1807 10.4479C38.4829 9.04123 39.2361 7.92084 40.3014 7.08591C40.2725 6.14568 41.1018 5.41571 42.015 5.41568C42.9618 5.41569 43.7293 6.14192 43.7293 7.03778C43.7293 8.19237 42.4891 8.91219 41.4507 8.56984C40.8876 8.99859 40.7576 9.09367 40.1033 10.6914C40.0479 10.8267 39.9062 11.0117 40.043 11.094C45.13 14.151 45.7123 16.9707 45.7682 20.076L45.9645 20.0541C49.3503 19.1903 51.9897 19.8251 52.4776 22.7094C52.5577 23.7237 52.3694 24.602 51.9236 25.506C50.8378 27.5413 46.4796 30.5203 44.1957 29.951L44.2067 30.3422C43.9504 46.0599 29.3295 40.2729 29.3091 40.2648C29.3009 40.27 27.3183 41.5417 26.9916 41.4083C26.6049 41.336 27.4322 39.6021 27.5268 39.2773L27.3114 39.0357C24.4702 37.2377 23.9692 34.9197 23.8575 32.8038L23.6004 32.9106C17.0555 35.3729 18.0353 26.8788 21.5512 26.001L21.3218 25.7609C11.2829 15.4735 20.5036 10.6607 27.422 16.7844C27.4229 16.7794 28.1502 12.7938 32.0348 11.2983C31.5022 10.0545 30.8877 8.99646 30.2278 7.82128C29.2712 7.99657 28.3007 7.27154 28.3007 6.27179C28.3007 5.40083 29.0279 4.69477 29.9248 4.69475ZM26.8979 30.0607C23.5884 38.2578 40.4533 43.2877 41.8894 33.6816C39.6793 34.3829 31.953 36.0684 27.0351 30.2549L26.8979 30.0607ZM24.7736 27.2341C23.3243 26.9989 22.1689 27.7022 22.0472 27.765C20.2551 28.6908 19.4806 33.3183 23.2802 31.4185C23.8598 31.217 23.9631 30.0229 24.2466 29.456C24.3874 29.1715 25.036 27.8224 25.4301 27.3177C25.1065 27.2496 25.0382 27.277 24.7736 27.2341ZM30.2526 25.3427C28.9557 25.9328 28.2918 27.8003 28.2906 27.8038C28.3011 27.8227 31.6274 33.7806 41.8894 30.7191C42.0919 29.6972 41.7578 27.5658 41.1546 27.118C35.5948 28.8958 31.9491 27.1244 30.2526 25.3427ZM50.8069 22.1813C48.742 19.9078 45.4885 22.4437 45.2873 22.7107C44.95 24.1274 43.9692 25.058 43.0228 25.8091C42.8865 25.905 42.7532 26.0057 42.6231 26.1107C42.6232 26.3302 43.7375 28.4638 43.929 28.7153C43.9383 28.715 46.1981 28.6274 48.7523 26.4433C48.7653 26.4318 52.0258 23.5235 50.8069 22.1813ZM41.2457 14.5194C37.3692 10.7942 29.9837 12.9105 29.3624 17.939C29.1447 19.7002 29.6713 21.3039 30.672 22.7094L30.8816 22.9289C31.7128 23.8894 32.8151 24.6313 33.962 25.1032C36.2257 25.8783 38.5669 25.7495 40.7078 24.6468C42.1238 23.8195 43.0442 22.8138 43.579 20.8295C44.1959 16.7171 41.61 14.833 41.2457 14.5194ZM23.8765 16.9841C18.1211 13.6901 16.1166 20.3808 25.4116 24.9413C25.4169 24.9451 26.4861 25.7192 27.5192 25.2656C28.0798 24.9605 28.6565 24.5529 28.8896 23.9164C28.0922 22.8984 27.4276 21.8552 27.232 20.5424C27.1994 20.2719 27.1609 20.0146 27.1075 19.7469C26.4768 18.4447 24.9091 17.5788 23.8765 16.9841ZM36.6935 22.4214C36.1914 21.7363 37.1875 21.1485 37.4735 21.7041C37.7164 22.176 38.2534 22.4599 38.7605 22.4398C39.307 22.4181 39.7609 22.1519 40.0795 21.7229C40.3222 21.3958 41.1377 21.8847 40.8264 22.341C39.8868 23.718 37.5936 23.6497 36.6935 22.4214ZM36.4843 17.9797C37.0215 17.9797 37.457 18.5762 37.457 19.312C37.457 20.0478 37.0215 20.6442 36.4843 20.6443C35.9471 20.6443 35.5115 20.0478 35.5115 19.312C35.5115 18.5762 35.9471 17.9797 36.4843 17.9797ZM40.77 17.9797C41.2324 17.9797 41.6074 18.5359 41.6074 19.2219C41.6074 19.9079 41.2324 20.464 40.77 20.464C40.3075 20.464 39.9326 19.9079 39.9326 19.2219C39.9326 18.5359 40.3075 17.9797 40.77 17.9797Z" fill="white"/>
</svg>
