<svg width="64" height="64" viewBox="0 0 64 64" fill="none" xmlns="http://www.w3.org/2000/svg">
<path d="M38.1678 54.9961C39.0793 58.3988 37.0597 61.8959 33.657 62.8076C33.1188 62.9518 32.5639 63.0254 32.0067 63.0254C28.4838 63.0254 25.6277 60.1693 25.6277 56.6465C25.6278 56.0893 25.7004 55.5343 25.8445 54.9961L32.0067 32L38.1678 54.9961ZM15.1483 48.9316C12.6662 51.4245 8.63328 51.4332 6.14044 48.9512C5.74106 48.5535 5.39631 48.1046 5.11505 47.6162C3.34722 44.5464 4.40268 40.6253 7.47247 38.8574C7.95163 38.5815 8.46414 38.368 8.99787 38.2236L32.0067 32L15.1483 48.9316ZM55.0223 38.0879C58.3886 38.9782 60.396 42.4286 59.5057 45.7949C59.3605 46.3439 59.1415 46.8709 58.8553 47.3613C57.0702 50.4192 53.1437 51.451 50.0858 49.666C49.6172 49.3925 49.1856 49.0601 48.8006 48.6777L32.0067 32L55.0223 38.0879ZM32.1141 0.974609C35.6044 0.974754 38.4343 3.80455 38.4344 7.29492C38.4344 7.84987 38.3609 8.40262 38.2166 8.93848L32.0067 32L25.9598 8.95215C25.0681 5.55339 27.1002 2.07551 30.4988 1.18359C31.0259 1.0453 31.5692 0.974609 32.1141 0.974609ZM48.8817 15.1914C51.3736 12.7096 55.4055 12.7181 57.8875 15.21C58.2757 15.5996 58.612 16.0377 58.8875 16.5137C60.6425 19.5463 59.6066 23.4276 56.574 25.1826C56.093 25.461 55.5776 25.6753 55.0408 25.8193L32.0067 32L48.8817 15.1914ZM5.15021 16.4248C6.91529 13.3754 10.8186 12.3337 13.868 14.0986C14.3521 14.3789 14.7975 14.7219 15.1922 15.1182L32.0067 32L9.01642 25.7949C5.6092 24.8754 3.59214 21.3682 4.51154 17.9609C4.65662 17.4234 4.87131 16.9067 5.15021 16.4248Z" fill="white"/>
</svg>
