<svg width="64" height="64" viewBox="0 0 64 64" fill="none" xmlns="http://www.w3.org/2000/svg">
<path d="M32.0801 55.8184C39.4325 55.8184 45.3926 57.3989 45.3926 59.3477C45.3916 61.2962 39.4319 62.876 32.0801 62.876C24.7283 62.876 18.7685 61.2962 18.7676 59.3477C18.7676 57.3989 24.7277 55.8184 32.0801 55.8184ZM32 1.12402C36.0475 1.12402 39.8705 2.10839 43.2373 3.85254C50.3864 7.55629 55.4787 14.6879 56.333 23.0801C56.4169 23.9039 56.46 24.7392 56.46 25.584C56.46 31.1351 54.6093 36.2595 51.4912 40.3652C47.027 46.2433 39.9568 50.0439 32 50.0439C28.1934 50.0439 24.5852 49.1732 21.3682 47.6182C13.1885 43.6646 7.54004 35.2856 7.54004 25.584C7.5401 19.8049 9.54659 14.4897 12.8994 10.3037C16.7676 5.4743 22.4348 2.13994 28.8906 1.32031C29.9096 1.19094 30.9475 1.12402 32 1.12402ZM27.2041 5.37598C26.967 5.24099 26.6713 5.32797 26.0801 5.50195C24.3121 6.0222 22.641 6.76959 21.1006 7.71094C20.2321 8.24173 19.797 8.50735 19.8496 8.82715C19.9025 9.1468 20.4497 9.26987 21.543 9.5166C21.8174 9.57853 22.0901 9.64995 22.3584 9.73145C23.8546 10.186 25.3285 10.9869 26.4277 12.332C27.5429 13.6968 28.1504 15.4734 28.1504 17.6445C28.1504 20.2792 27.4165 22.2412 26.1455 23.6885C24.9165 25.0879 23.334 25.8295 21.9951 26.333C21.3375 26.5803 20.6421 26.8033 20.1055 26.9873C19.5276 27.1855 19.0868 27.3541 18.7422 27.5332C18.3998 27.7113 18.2587 27.8466 18.2021 27.9219C18.1715 27.9624 18.126 28.0289 18.126 28.2305C18.126 29.6026 18.8446 30.1297 20.5332 31.9238C21.3103 32.7495 22.1769 33.7784 22.833 35.1895C23.4935 36.6101 23.9004 38.3264 23.9004 40.501V43.8252C23.9004 44.3484 23.9004 44.6101 24.0459 44.8174C24.1915 45.0247 24.4251 45.1095 24.8926 45.2783C27.11 46.0787 29.5027 46.5156 32 46.5156C38.8063 46.5156 44.854 43.269 48.6797 38.2324C49.3786 37.3098 49.436 36.2973 49.167 35.5674C48.8975 34.836 48.3721 34.4863 47.7988 34.4863C47.539 34.4863 47.1535 34.5922 46.5586 34.9492C45.9591 35.3088 45.3416 35.7991 44.5742 36.3984C43.8518 36.9624 43.0026 37.6169 42.0898 38.1221C41.1663 38.6331 40.0638 39.0576 38.8164 39.0576C36.3566 39.0575 34.1954 37.4391 32.751 35.5771C31.2731 33.6719 30.2354 31.136 30.2354 28.6318C30.2354 26.4207 30.638 23.4095 32.4023 20.9082C34.2444 18.2964 37.3693 16.5216 42.1846 16.5215C44.7141 16.5215 46.9313 16.9304 48.8184 17.5527C50.1955 18.0068 50.8835 18.2337 51.1631 17.9033C51.4426 17.5727 51.1385 16.9948 50.5293 15.8389C49.1463 13.2147 47.2216 10.9191 44.9033 9.10156C44.3007 8.62915 43.999 8.39238 43.6689 8.43262C43.3387 8.47296 43.0535 8.83822 42.4844 9.56738C42.3061 9.79576 42.1159 10.0186 41.9141 10.2324C40.4866 11.7434 38.3384 12.9932 35.5283 12.9932C32.0616 12.993 29.8678 11.1731 28.6621 8.99316C28.2215 8.19662 27.9097 7.35184 27.6992 6.52441C27.5272 5.84868 27.4408 5.51102 27.2041 5.37598ZM21.332 13.1084C19.6424 12.5952 17.586 12.6279 15.8818 12.8896C15.5929 12.9341 15.4481 12.9565 15.3096 13.042C15.1712 13.1276 15.085 13.2488 14.9131 13.4912C12.4913 16.9063 11.0684 21.077 11.0684 25.584C11.0684 32.4082 14.3345 38.4716 19.3926 42.2939C19.8079 42.6079 20.0155 42.7651 20.1934 42.6768C20.3712 42.5882 20.3711 42.3216 20.3711 41.7891V40.501C20.3711 38.7863 20.0559 37.5854 19.6338 36.6777C19.2075 35.7606 18.6303 35.0498 17.9639 34.3418C16.7655 33.0684 14.5977 31.3492 14.5977 28.2305C14.5977 27.3096 14.8651 26.4886 15.3828 25.8008C15.8744 25.1472 16.5171 24.7128 17.1143 24.4023C17.7093 24.0929 18.3644 23.8539 18.9609 23.6494C19.599 23.4305 20.1575 23.2542 20.7529 23.0303C21.9199 22.5915 22.8436 22.1009 23.4941 21.3604C24.1028 20.6673 24.6221 19.5811 24.6221 17.6445C24.622 16.1589 24.2198 15.2063 23.6953 14.5645C23.1548 13.9033 22.3584 13.4202 21.332 13.1084ZM42.1846 20.0508C38.3391 20.0509 36.3712 21.4041 35.2861 22.9424C34.1234 24.5912 33.7646 26.7531 33.7646 28.6318C33.7647 30.2175 34.4508 32.0123 35.5391 33.415C36.6607 34.8609 37.9082 35.5282 38.8164 35.5283C39.2531 35.5283 39.7557 35.3811 40.3809 35.0352C41.0166 34.6833 41.6614 34.1958 42.4023 33.6172C43.0985 33.0738 43.9141 32.4202 44.7432 31.9229C45.5766 31.4227 46.6151 30.957 47.7988 30.957C48.9986 30.957 50.0283 31.3703 50.8369 32.0264C51.2585 32.3684 51.4697 32.5397 51.6328 32.4902C51.7958 32.4407 51.8665 32.2125 52.0068 31.7568C52.6079 29.8062 52.9316 27.7332 52.9316 25.584C52.9316 25.2293 52.9228 24.8764 52.9053 24.5264C52.8917 24.2522 52.8846 24.1147 52.8174 23.9717C52.7502 23.8288 52.6573 23.7436 52.4717 23.5732C50.9377 22.1647 47.4877 20.0508 42.1846 20.0508ZM32 4.65234C31.8743 4.65234 31.8114 4.65264 31.7295 4.66992C31.3838 4.74305 31.0761 5.14235 31.0938 5.49512C31.0979 5.57876 31.1114 5.62894 31.1377 5.72852C31.2785 6.2611 31.4783 6.79535 31.749 7.28516C32.4347 8.52461 33.5421 9.46473 35.5283 9.46484C37.2091 9.46484 38.4705 8.73827 39.3486 7.80859C39.3671 7.78908 39.3854 7.76958 39.4033 7.75C39.8661 7.24658 40.0979 6.99474 39.9912 6.57422C39.8844 6.15359 39.5185 6.02791 38.7871 5.77734C36.6601 5.04854 34.3775 4.65234 32 4.65234Z" fill="white"/>
</svg>
