<svg width="64" height="64" viewBox="0 0 64 64" fill="none" xmlns="http://www.w3.org/2000/svg">
<path d="M32.1426 1C49.3422 1 63.286 14.943 63.2861 32.1426C63.2861 49.3423 49.3423 63.2861 32.1426 63.2861C14.943 63.286 1 49.3422 1 32.1426C1.00013 14.9431 14.9431 1.00013 32.1426 1ZM32.1426 4.9375C17.1179 4.9375 4.93775 17.118 4.9375 32.1426L4.93945 32.4941C5.12625 47.2399 17.0453 59.159 31.791 59.3457L32.1426 59.3477C47.05 59.3476 59.1565 47.3569 59.3447 32.4941L59.3477 32.1426C59.3474 17.2354 47.3567 5.12873 32.4941 4.94043L32.1426 4.9375ZM32.1426 6.10449C46.523 6.10456 58.1804 17.7622 58.1807 32.1426C58.1806 46.5231 46.5231 58.1806 32.1426 58.1807C17.762 58.1807 6.10452 46.5232 6.10449 32.1426C6.10474 17.7622 17.7621 6.10449 32.1426 6.10449ZM32.1436 12.7119C21.4127 12.7119 12.7131 21.4118 12.7129 32.1426L12.7148 32.3936C12.8483 42.9251 21.3601 51.4377 31.8916 51.5713L32.1436 51.5723C42.7904 51.572 51.4368 43.0086 51.5713 32.3936L51.5732 32.1426C51.573 21.4958 43.0095 12.8485 32.3945 12.7139L32.1436 12.7119ZM32.1436 13.2959C42.552 13.2962 50.99 21.7341 50.9902 32.1426C50.9901 42.5512 42.5521 50.989 32.1436 50.9893C21.7348 50.9893 13.296 42.5513 13.2959 32.1426C13.2961 21.7339 21.7348 13.2959 32.1436 13.2959ZM32.1426 20.5801C25.7573 20.5803 20.5813 25.7573 20.5811 32.1426C20.5812 38.4781 25.6767 43.6239 31.9932 43.7041H32.1426C38.4782 43.7041 43.624 38.6086 43.7041 32.292L43.7051 32.1426C43.7048 25.7572 38.528 20.5801 32.1426 20.5801ZM32.1426 21.1631C38.2059 21.1631 43.1218 26.0793 43.1221 32.1426C43.1219 38.2059 38.206 43.1211 32.1426 43.1211C26.0793 43.1209 21.1642 38.2058 21.1641 32.1426C21.1643 26.0794 26.0794 21.1633 32.1426 21.1631ZM32.1426 26.0859C28.7977 26.086 26.0862 28.7977 26.0859 32.1426C26.086 35.4875 28.7976 38.1992 32.1426 38.1992C35.4876 38.1992 38.1991 35.4876 38.1992 32.1426C38.199 28.7977 35.4875 26.0859 32.1426 26.0859Z" fill="white"/>
</svg>
