<svg width="64" height="64" viewBox="0 0 64 64" fill="none" xmlns="http://www.w3.org/2000/svg">
<path d="M33.6396 47.6475C37.0915 47.6475 39.8896 50.4456 39.8896 53.8975V57.0146C39.8895 60.4664 37.0914 63.2646 33.6396 63.2646H7.25C3.79832 63.2646 1.00019 60.4663 1 57.0146V53.8975C1.00003 50.4457 3.79822 47.6476 7.25 47.6475H33.6396ZM57.2188 47.6475C60.6705 47.6476 63.4687 50.4457 63.4688 53.8975V57.0146C63.4686 60.4663 60.6704 63.2646 57.2188 63.2646H54C50.5482 63.2646 47.7502 60.4664 47.75 57.0146V53.8975C47.75 50.4456 50.5481 47.6475 54 47.6475H57.2188ZM10.0605 1C13.5124 1 16.3105 3.7982 16.3105 7.25V33.4355C16.3105 36.8874 13.5124 39.6855 10.0605 39.6855H7.25C3.79823 39.6855 1.00005 36.8873 1 33.4355V7.25C1.00009 3.79826 3.79826 1.00009 7.25 1H10.0605ZM57.2188 1C60.6706 1 63.4687 3.7982 63.4688 7.25V33.4355C63.4687 36.8874 60.6706 39.6855 57.2188 39.6855H30.5234C27.0716 39.6855 24.2735 36.8874 24.2734 33.4355V7.25C24.2735 3.7982 27.0716 1 30.5234 1H57.2188Z" fill="white"/>
</svg>
